<mxfile host="Electron" agent="Mozilla/5.0 (Windows NT 10.0; Win64; x64) AppleWebKit/537.36 (KHTML, like Gecko) draw.io/28.1.2 Chrome/138.0.7204.243 Electron/37.4.0 Safari/537.36" version="28.1.2">
  <diagram name="PÃ¡gina-1" id="hijjJ27G6oE9mz152DCF">
    <mxGraphModel dx="1426" dy="841" grid="1" gridSize="10" guides="1" tooltips="1" connect="1" arrows="1" fold="1" page="1" pageScale="1" pageWidth="827" pageHeight="1169" math="0" shadow="0">
      <root>
        <mxCell id="0" />
        <mxCell id="1" parent="0" />
        <mxCell id="oh9EL3Ibr7QgS9e4MxJJ-1" value="" style="rounded=0;whiteSpace=wrap;html=1;" vertex="1" parent="1">
          <mxGeometry x="40" y="40" width="700" height="400" as="geometry" />
        </mxCell>
        <mxCell id="oh9EL3Ibr7QgS9e4MxJJ-2" value="" style="rounded=0;whiteSpace=wrap;html=1;" vertex="1" parent="1">
          <mxGeometry x="50" y="50" width="330" height="280" as="geometry" />
        </mxCell>
        <mxCell id="oh9EL3Ibr7QgS9e4MxJJ-3" value="" style="rounded=0;whiteSpace=wrap;html=1;" vertex="1" parent="1">
          <mxGeometry x="390" y="50" width="340" height="280" as="geometry" />
        </mxCell>
        <mxCell id="oh9EL3Ibr7QgS9e4MxJJ-4" value="" style="rounded=0;whiteSpace=wrap;html=1;" vertex="1" parent="1">
          <mxGeometry x="50" y="340" width="680" height="90" as="geometry" />
        </mxCell>
        <mxCell id="oh9EL3Ibr7QgS9e4MxJJ-5" value="TABLE 1" style="text;html=1;align=center;verticalAlign=middle;whiteSpace=wrap;rounded=0;" vertex="1" parent="1">
          <mxGeometry x="185" y="180" width="60" height="30" as="geometry" />
        </mxCell>
        <mxCell id="oh9EL3Ibr7QgS9e4MxJJ-6" value="TABLE 2" style="text;html=1;align=center;verticalAlign=middle;whiteSpace=wrap;rounded=0;" vertex="1" parent="1">
          <mxGeometry x="500" y="175" width="60" height="30" as="geometry" />
        </mxCell>
        <mxCell id="oh9EL3Ibr7QgS9e4MxJJ-7" value="SOME BUTTONS" style="text;html=1;align=center;verticalAlign=middle;whiteSpace=wrap;rounded=0;" vertex="1" parent="1">
          <mxGeometry x="360" y="370" width="60" height="30" as="geometry" />
        </mxCell>
      </root>
    </mxGraphModel>
  </diagram>
</mxfile>
